<svg width="23" height="23" viewBox="0 0 23 23" fill="none" xmlns="http://www.w3.org/2000/svg">
<path d="M20.0884 12.2571C19.9377 13.8884 19.3254 15.443 18.3234 16.739C17.3213 18.035 15.9709 19.0189 14.4301 19.5754C12.8893 20.132 11.2219 20.2382 9.62293 19.8817C8.02397 19.5251 6.55961 18.7206 5.40121 17.5622C4.2428 16.4038 3.43827 14.9394 3.08173 13.3405C2.7252 11.7415 2.83143 10.0741 3.38797 8.53328C3.94452 6.99249 4.92837 5.64206 6.2244 4.64001C7.52043 3.63797 9.07504 3.02575 10.7063 2.875C9.75126 4.16709 9.29168 5.75906 9.41117 7.36136C9.53065 8.96365 10.2213 10.4698 11.3574 11.606C12.4936 12.7421 13.9998 13.4328 15.6021 13.5522C17.2044 13.6717 18.7963 13.2121 20.0884 12.2571Z" stroke="#0B0B0D" stroke-width="2" stroke-linecap="round" stroke-linejoin="round"/>
</svg>
