<svg width="350" height="29" viewBox="0 0 350 29" fill="none" xmlns="http://www.w3.org/2000/svg">
<path d="M43.304 10.184V23H40.328V12.728H34.016V23H31.016V10.184H43.304ZM53.6879 10.04C55.0159 10.04 56.1759 10.312 57.1679 10.856C58.1759 11.4 58.9519 12.168 59.4959 13.16C60.0559 14.152 60.3359 15.304 60.3359 16.616C60.3359 17.912 60.0719 19.056 59.5439 20.048C59.0159 21.04 58.2719 21.808 57.3119 22.352C56.3679 22.896 55.2719 23.168 54.0239 23.168C52.2479 23.168 50.8559 22.6 49.8479 21.464V27.656H46.8239V16.64C46.8239 15.344 47.1119 14.2 47.6879 13.208C48.2639 12.2 49.0639 11.424 50.0879 10.88C51.1279 10.32 52.3279 10.04 53.6879 10.04ZM53.5679 20.624C54.6879 20.624 55.5999 20.256 56.3039 19.52C57.0079 18.768 57.3599 17.8 57.3599 16.616C57.3599 15.432 57.0079 14.464 56.3039 13.712C55.5999 12.96 54.6879 12.584 53.5679 12.584C52.4319 12.584 51.5199 12.952 50.8319 13.688C50.1439 14.424 49.7999 15.392 49.7999 16.592C49.7999 17.792 50.1439 18.768 50.8319 19.52C51.5359 20.256 52.4479 20.624 53.5679 20.624ZM75.4803 10.184V23H72.6243V21.368C72.1443 21.944 71.5443 22.392 70.8243 22.712C70.1203 23.016 69.3523 23.168 68.5203 23.168C66.8083 23.168 65.4563 22.696 64.4643 21.752C63.4723 20.792 62.9763 19.376 62.9763 17.504V10.184H65.9763V17.096C65.9763 18.248 66.2323 19.112 66.7443 19.688C67.2723 20.248 68.0243 20.528 69.0003 20.528C70.0563 20.528 70.8963 20.2 71.5203 19.544C72.1603 18.872 72.4803 17.912 72.4803 16.664V10.184H75.4803ZM85.5796 20.624C86.9716 20.624 88.1316 20.16 89.0596 19.232L90.6436 21.08C90.0836 21.768 89.3636 22.288 88.4836 22.64C87.6036 22.992 86.6116 23.168 85.5076 23.168C84.0996 23.168 82.8596 22.888 81.7876 22.328C80.7156 21.768 79.8836 20.992 79.2916 20C78.7156 18.992 78.4276 17.856 78.4276 16.592C78.4276 15.344 78.7076 14.224 79.2676 13.232C79.8436 12.224 80.6276 11.44 81.6196 10.88C82.6276 10.32 83.7636 10.04 85.0276 10.04C86.2276 10.04 87.3156 10.304 88.2916 10.832C89.2836 11.344 90.0676 12.088 90.6436 13.064C91.2196 14.024 91.5076 15.152 91.5076 16.448L81.6916 18.368C81.9956 19.104 82.4836 19.664 83.1556 20.048C83.8276 20.432 84.6356 20.624 85.5796 20.624ZM85.0276 12.44C83.9236 12.44 83.0276 12.8 82.3396 13.52C81.6676 14.24 81.3316 15.208 81.3316 16.424V16.448L88.5796 15.056C88.3716 14.272 87.9476 13.64 87.3076 13.16C86.6836 12.68 85.9236 12.44 85.0276 12.44ZM107.038 23V14.504L102.718 21.656H101.422L97.1739 14.48V23H94.4379V10.184H97.5819L102.142 18.2L106.918 10.184H109.726L109.75 23H107.038ZM113.774 10.184H116.774V15.392H123.23V10.184H126.23V23H123.23V17.936H116.774V23H113.774V10.184ZM142.73 10.184V23H139.874V21.344C139.378 21.952 138.762 22.408 138.026 22.712C137.306 23.016 136.506 23.168 135.626 23.168C134.378 23.168 133.258 22.896 132.266 22.352C131.29 21.808 130.522 21.04 129.962 20.048C129.418 19.056 129.146 17.904 129.146 16.592C129.146 15.28 129.418 14.136 129.962 13.16C130.522 12.168 131.29 11.4 132.266 10.856C133.258 10.312 134.378 10.04 135.626 10.04C136.458 10.04 137.218 10.184 137.906 10.472C138.61 10.76 139.218 11.184 139.73 11.744V10.184H142.73ZM135.962 20.6C137.066 20.6 137.978 20.232 138.698 19.496C139.418 18.76 139.778 17.792 139.778 16.592C139.778 15.392 139.418 14.424 138.698 13.688C137.978 12.952 137.066 12.584 135.962 12.584C134.858 12.584 133.946 12.952 133.226 13.688C132.522 14.424 132.17 15.392 132.17 16.592C132.17 17.792 132.522 18.76 133.226 19.496C133.946 20.232 134.858 20.6 135.962 20.6ZM157.528 10.184V23H154.84V19.136H151.456L148.84 23H145.624L148.648 18.728C147.72 18.408 147.008 17.92 146.512 17.264C146.032 16.592 145.792 15.768 145.792 14.792C145.792 13.32 146.312 12.184 147.352 11.384C148.392 10.584 149.824 10.184 151.648 10.184H157.528ZM151.743 12.704C149.808 12.704 148.84 13.432 148.84 14.888C148.84 16.328 149.776 17.048 151.648 17.048H154.84V12.704H151.743ZM173.524 17.864H171.196V23H168.196V10.184H171.196V15.368H173.596L177.388 10.184H180.604L175.948 16.352L180.916 23H177.388L173.524 17.864ZM188.322 23.168C187.026 23.168 185.858 22.888 184.818 22.328C183.778 21.768 182.962 20.992 182.37 20C181.794 18.992 181.506 17.856 181.506 16.592C181.506 15.328 181.794 14.2 182.37 13.208C182.962 12.216 183.778 11.44 184.818 10.88C185.858 10.32 187.026 10.04 188.322 10.04C189.634 10.04 190.81 10.32 191.85 10.88C192.89 11.44 193.698 12.216 194.274 13.208C194.866 14.2 195.162 15.328 195.162 16.592C195.162 17.856 194.866 18.992 194.274 20C193.698 20.992 192.89 21.768 191.85 22.328C190.81 22.888 189.634 23.168 188.322 23.168ZM188.322 20.6C189.426 20.6 190.338 20.232 191.058 19.496C191.778 18.76 192.138 17.792 192.138 16.592C192.138 15.392 191.778 14.424 191.058 13.688C190.338 12.952 189.426 12.584 188.322 12.584C187.218 12.584 186.306 12.952 185.586 13.688C184.882 14.424 184.53 15.392 184.53 16.592C184.53 17.792 184.882 18.76 185.586 19.496C186.306 20.232 187.218 20.6 188.322 20.6ZM210.725 23V14.504L206.405 21.656H205.109L200.861 14.48V23H198.125V10.184H201.269L205.829 18.2L210.605 10.184H213.413L213.437 23H210.725ZM229.605 10.184V23H226.749V21.368C226.269 21.944 225.669 22.392 224.949 22.712C224.245 23.016 223.477 23.168 222.645 23.168C220.933 23.168 219.581 22.696 218.589 21.752C217.597 20.792 217.101 19.376 217.101 17.504V10.184H220.101V17.096C220.101 18.248 220.357 19.112 220.869 19.688C221.397 20.248 222.149 20.528 223.125 20.528C224.181 20.528 225.021 20.2 225.645 19.544C226.285 18.872 226.605 17.912 226.605 16.664V10.184H229.605ZM239.489 23.168C238.161 23.168 236.969 22.888 235.913 22.328C234.857 21.768 234.033 20.992 233.441 20C232.849 18.992 232.553 17.856 232.553 16.592C232.553 15.328 232.849 14.2 233.441 13.208C234.033 12.216 234.849 11.44 235.889 10.88C236.945 10.32 238.145 10.04 239.489 10.04C240.753 10.04 241.857 10.296 242.801 10.808C243.761 11.32 244.481 12.056 244.961 13.016L242.657 14.36C242.289 13.768 241.825 13.328 241.265 13.04C240.721 12.736 240.121 12.584 239.465 12.584C238.345 12.584 237.417 12.952 236.681 13.688C235.945 14.408 235.577 15.376 235.577 16.592C235.577 17.808 235.937 18.784 236.657 19.52C237.393 20.24 238.329 20.6 239.465 20.6C240.121 20.6 240.721 20.456 241.265 20.168C241.825 19.864 242.289 19.416 242.657 18.824L244.961 20.168C244.465 21.128 243.737 21.872 242.777 22.4C241.833 22.912 240.737 23.168 239.489 23.168ZM253.246 23.168C251.918 23.168 250.726 22.888 249.67 22.328C248.614 21.768 247.79 20.992 247.198 20C246.606 18.992 246.31 17.856 246.31 16.592C246.31 15.328 246.606 14.2 247.198 13.208C247.79 12.216 248.606 11.44 249.646 10.88C250.702 10.32 251.902 10.04 253.246 10.04C254.51 10.04 255.614 10.296 256.558 10.808C257.518 11.32 258.238 12.056 258.718 13.016L256.414 14.36C256.046 13.768 255.582 13.328 255.022 13.04C254.478 12.736 253.878 12.584 253.222 12.584C252.102 12.584 251.174 12.952 250.438 13.688C249.702 14.408 249.334 15.376 249.334 16.592C249.334 17.808 249.694 18.784 250.414 19.52C251.15 20.24 252.086 20.6 253.222 20.6C253.878 20.6 254.478 20.456 255.022 20.168C255.582 19.864 256.046 19.416 256.414 18.824L258.718 20.168C258.222 21.128 257.494 21.872 256.534 22.4C255.59 22.912 254.494 23.168 253.246 23.168ZM273.504 10.184V23H270.648V21.368C270.168 21.944 269.568 22.392 268.848 22.712C268.144 23.016 267.376 23.168 266.544 23.168C264.832 23.168 263.48 22.696 262.488 21.752C261.496 20.792 261 19.376 261 17.504V10.184H264V17.096C264 18.248 264.256 19.112 264.768 19.688C265.296 20.248 266.048 20.528 267.024 20.528C268.08 20.528 268.92 20.2 269.544 19.544C270.184 18.872 270.504 17.912 270.504 16.664V10.184H273.504ZM288.379 10.184V23H285.691V19.136H282.307L279.691 23H276.475L279.499 18.728C278.571 18.408 277.859 17.92 277.363 17.264C276.883 16.592 276.643 15.768 276.643 14.792C276.643 13.32 277.163 12.184 278.203 11.384C279.243 10.584 280.675 10.184 282.499 10.184H288.379ZM282.595 12.704C280.659 12.704 279.691 13.432 279.691 14.888C279.691 16.328 280.627 17.048 282.499 17.048H285.691V12.704H282.595ZM311.407 10.376C309.823 9.48 308.175 8.936 306.463 8.744V23H303.343V8.744C301.615 8.936 299.959 9.48 298.375 10.376L297.295 7.976C298.415 7.304 299.615 6.8 300.895 6.464C302.191 6.128 303.519 5.96 304.879 5.96C306.239 5.96 307.567 6.128 308.863 6.464C310.159 6.8 311.367 7.304 312.487 7.976L311.407 10.376ZM329.99 6.2V23H326.918V8.84H318.206V23H315.134V6.2H329.99ZM340.919 15.92H337.799V23H334.727V6.2H337.799V13.232H341.015L345.839 6.2H349.151L343.415 14.336L349.367 23H345.839L340.919 15.92Z" fill="#0B0B0D"/>
<circle cx="4.5" cy="16.5" r="4.5" fill="#2849EC"/>
</svg>
