<svg width="24" height="25" viewBox="0 0 24 25" fill="none" xmlns="http://www.w3.org/2000/svg">
<path d="M21 13.4484C20.8427 15.1507 20.2039 16.7729 19.1583 18.1252C18.1127 19.4776 16.7035 20.5042 15.0957 21.085C13.4879 21.6657 11.748 21.7766 10.0795 21.4045C8.41104 21.0325 6.88302 20.193 5.67425 18.9842C4.46548 17.7755 3.62596 16.2474 3.25393 14.5789C2.8819 12.9105 2.99274 11.1705 3.57348 9.56274C4.15423 7.95496 5.18085 6.54581 6.53324 5.5002C7.88562 4.45459 9.50782 3.81575 11.21 3.65845C10.2134 5.00671 9.73387 6.6679 9.85856 8.33986C9.98324 10.0118 10.7039 11.5835 11.8894 12.769C13.075 13.9546 14.6466 14.6752 16.3186 14.7999C17.9906 14.9246 19.6518 14.445 21 13.4484Z" stroke="#0B0B0D" stroke-width="2" stroke-linecap="round" stroke-linejoin="round"/>
</svg>
