<svg width="25" height="25" viewBox="0 0 25 25" fill="none" xmlns="http://www.w3.org/2000/svg">
<g clip-path="url(#clip0_102_575)">
<path d="M12.1379 17.6584C14.8994 17.6584 17.1379 15.4199 17.1379 12.6584C17.1379 9.89702 14.8994 7.65845 12.1379 7.65845C9.37652 7.65845 7.13794 9.89702 7.13794 12.6584C7.13794 15.4199 9.37652 17.6584 12.1379 17.6584Z" stroke="white" stroke-width="2" stroke-linecap="round" stroke-linejoin="round"/>
<path d="M12.1379 1.65845V3.65845" stroke="white" stroke-width="2" stroke-linecap="round" stroke-linejoin="round"/>
<path d="M12.1379 21.6584V23.6584" stroke="white" stroke-width="2" stroke-linecap="round" stroke-linejoin="round"/>
<path d="M4.35791 4.87842L5.77791 6.29842" stroke="white" stroke-width="2" stroke-linecap="round" stroke-linejoin="round"/>
<path d="M18.4979 19.0186L19.9179 20.4386" stroke="white" stroke-width="2" stroke-linecap="round" stroke-linejoin="round"/>
<path d="M1.13794 12.6584H3.13794" stroke="white" stroke-width="2" stroke-linecap="round" stroke-linejoin="round"/>
<path d="M21.1379 12.6584H23.1379" stroke="white" stroke-width="2" stroke-linecap="round" stroke-linejoin="round"/>
<path d="M4.35791 20.4386L5.77791 19.0186" stroke="white" stroke-width="2" stroke-linecap="round" stroke-linejoin="round"/>
<path d="M18.4979 6.29842L19.9179 4.87842" stroke="white" stroke-width="2" stroke-linecap="round" stroke-linejoin="round"/>
</g>
<defs>
<clipPath id="clip0_102_575">
<rect width="24" height="24" fill="white" transform="translate(0.137939 0.658447)"/>
</clipPath>
</defs>
</svg>
